<svg xmlns="http://www.w3.org/2000/svg" xmlns:xlink="http://www.w3.org/1999/xlink" version="1.1" width="1080" height="1080" viewBox="0 0 1080 1080" xml:space="preserve">
<desc>Created with Fabric.js 3.5.0</desc>
<defs>
</defs>
<rect x="0" y="0" width="100%" height="100%" fill="rgba(255,255,255,0)"/>
<g transform="matrix(0.9329 0 0 0.9329 539.9879 539.9829)" id="850440">
<g style="" vector-effect="non-scaling-stroke">
		<g transform="matrix(1.1048 0 0 1.1048 1.1505 -18.5031)" id="path2989">
<path style="stroke: rgb(0,0,0); stroke-opacity: 0; stroke-width: 5; stroke-dasharray: none; stroke-linecap: butt; stroke-dashoffset: 0; stroke-linejoin: miter; stroke-miterlimit: 4; is-custom-font: none; font-file-url: none; fill: rgb(0,0,0); fill-opacity: 0; fill-rule: nonzero; opacity: 1;" transform=" translate(-500.005, -606.65)" d="m 814.29 606.65 a 314.29 314.29 0 1 1 -628.57 0 a 314.29 314.29 0 1 1 628.57 0 z" stroke-linecap="round"/>
</g>
		<g transform="matrix(0.9184 0 0 0.9184 1.1804 -18.4702)" id="path2991">
<path style="stroke: rgb(123,9,22); stroke-width: 133.87; stroke-dasharray: none; stroke-linecap: round; stroke-dashoffset: 0; stroke-linejoin: miter; stroke-miterlimit: 4; is-custom-font: none; font-file-url: none; fill: none; fill-rule: nonzero; opacity: 1;" transform=" translate(-354.575, -540.935)" d="m 176.51 362.87 l 356.13 356.13" stroke-linecap="round"/>
</g>
		<g transform="matrix(0.9184 0 0 0.9184 1.1804 -18.4702)" id="path2993">
<path style="stroke: rgb(123,9,22); stroke-width: 133.87; stroke-dasharray: none; stroke-linecap: round; stroke-dashoffset: 0; stroke-linejoin: miter; stroke-miterlimit: 4; is-custom-font: none; font-file-url: none; fill: none; fill-rule: nonzero; opacity: 1;" transform=" translate(-354.575, -540.935)" d="m 532.64 362.87 l -356.13 356.13" stroke-linecap="round"/>
</g>
</g>
</g>
</svg>